name analog
datacolumns 19
datarows 23
range 0.55 0.561
endheader
time	ground_force_vx	ground_force_vy	ground_force_vz	ground_force_px	ground_force_py	ground_force_pz	l_ground_force_vx	l_ground_force_vy	l_ground_force_vz	l_ground_force_px	l_ground_force_py	l_ground_force_pz	ground_torque_x	ground_torque_y	ground_torque_z	l_ground_torque_x	l_ground_torque_y	l_ground_torque_z
0.55	-0.0	-0.0	-0.0	6.353883266448975	32.159645080566406	-361.69573974609375	1.4554219245910645	-37.04267883300781	-398.0711059570313	-0.0	-0.0	-0.0	-0.0	-0.0	-0.0	100816.6484375	8114.79833984375	-13851.73046875
0.5505	-0.0	-0.0	-0.0	5.8878936767578125	32.89918518066406	-363.133544921875	1.5967941284179688	-37.042747497558594	-395.7571105957031	-0.0	-0.0	-0.0	-0.0	-0.0	-0.0	100536.4140625	7925.724609375	-13858.0947265625
0.551	-0.0	-0.0	-0.0	5.914235591888428	32.648048400878906	-364.2328186035156	1.1269810199737549	-36.8923225402832	-396.0412902832031	-0.0	-0.0	-0.0	-0.0	-0.0	-0.0	100523.4921875	8261.87890625	-14004.537109375
0.5515	-0.0	-0.0	-0.0	5.352630615234375	32.826271057128906	-364.3775634765625	1.2218668460845947	-36.55518341064453	-396.12017822265625	-0.0	-0.0	-0.0	-0.0	-0.0	-0.0	100299.515625	8059.845703125	-14048.2763671875
0.552	-0.0	-0.0	-0.0	5.541453838348389	32.77374267578125	-365.5824279785156	1.41937255859375	-36.35235977172852	-394.9935607910156	-0.0	-0.0	-0.0	-0.0	-0.0	-0.0	99910.9375	7967.23583984375	-14013.044921875
0.5525	-0.0	-0.0	-0.0	5.216167449951172	33.22464370727539	-364.481689453125	1.0645294189453125	-36.762245178222656	-393.0014343261719	-0.0	-0.0	-0.0	-0.0	-0.0	-0.0	99509.0078125	8052.96044921875	-14128.6630859375
0.553	-0.0	-0.0	-0.0	5.0800395011901855	32.90468215942383	-363.9827575683594	0.3444777429103851	-36.315895080566406	-394.2738037109375	-0.0	-0.0	-0.0	-0.0	-0.0	-0.0	99570.6640625	8164.08544921875	-14251.185546875
0.5535	-0.0	-0.0	-0.0	4.660402774810791	33.38704299926758	-364.2320861816406	0.2244486659765243	-36.61199951171875	-394.0281066894531	-0.0	-0.0	-0.0	-0.0	-0.0	-0.0	99610.1875	8239.5048828125	-14354.3125
0.554	-0.0	-0.0	-0.0	4.199272632598877	33.45000457763672	-364.5245971679688	0.1619580686092376	-36.27428436279297	-393.2472229003906	-0.0	-0.0	-0.0	-0.0	-0.0	-0.0	99431.859375	8204.919921875	-14411.943359375
0.5545	-0.0	-0.0	-0.0	3.914318561553955	34.0150146484375	-363.0856018066406	-0.1667327880859375	-36.33213806152344	-392.0972900390625	-0.0	-0.0	-0.0	-0.0	-0.0	-0.0	99165.7890625	8426.0556640625	-14518.63671875
0.555	-0.0	-0.0	-0.0	3.642631769180298	33.84352493286133	-364.3785705566406	-0.7616285085678101	-36.10846328735352	-392.2844848632813	-0.0	-0.0	-0.0	-0.0	-0.0	-0.0	99216.1875	8369.07421875	-14456.1015625
0.5555	-0.0	-0.0	-0.0	3.0591745376586914	34.25206756591797	-363.4221801757813	-1.1791762113571167	-36.02439498901367	-391.0069274902344	-0.0	-0.0	-0.0	-0.0	-0.0	-0.0	99268.5859375	8311.576171875	-14562.7138671875
0.556	-0.0	-0.0	-0.0	3.070406436920166	34.20011901855469	-361.5224304199219	-1.62269389629364	-36.112606048583984	-391.6461791992188	-0.0	-0.0	-0.0	-0.0	-0.0	-0.0	99378.4453125	8502.89453125	-14724.9873046875
0.5565	-0.0	-0.0	-0.0	2.475138902664185	33.9846076965332	-362.9662780761719	-2.180785894393921	-36.09782028198242	-393.493896484375	-0.0	-0.0	-0.0	-0.0	-0.0	-0.0	99274.359375	8489.4638671875	-14842.740234375
0.557	-0.0	-0.0	-0.0	2.293564558029175	33.93573760986328	-362.3626098632813	-2.6871516704559326	-36.414249420166016	-394.3955078125	-0.0	-0.0	-0.0	-0.0	-0.0	-0.0	99867.3984375	8686.9970703125	-15068.1025390625
0.5575	-0.0	-0.0	-0.0	2.2561349868774414	34.49346923828125	-363.4786682128906	-3.027501583099365	-36.20060729980469	-393.5953979492188	-0.0	-0.0	-0.0	-0.0	-0.0	-0.0	100061.5078125	8726.0517578125	-15194.50390625
0.558	-0.0	-0.0	-0.0	1.939225196838379	33.935302734375	-364.1748352050781	-3.322366952896118	-36.123573303222656	-395.93792724609375	-0.0	-0.0	-0.0	-0.0	-0.0	-0.0	100240.015625	8775.9228515625	-15406.216796875
0.5585	-0.0	-0.0	-0.0	2.0120506286621094	34.008060455322266	-365.74554443359375	-3.814563751220703	-35.89832305908203	-395.791259765625	-0.0	-0.0	-0.0	-0.0	-0.0	-0.0	100602.3828125	8748.6455078125	-15402.7294921875
0.559	-0.0	-0.0	-0.0	2.204498767852783	34.008243560791016	-365.2428894042969	-4.106380462646484	-36.07478713989258	-397.23345947265625	-0.0	-0.0	-0.0	-0.0	-0.0	-0.0	100653.296875	8599.666015625	-15408.51171875
0.5595	-0.0	-0.0	-0.0	1.197492241859436	33.83016586303711	-367.4566345214844	-4.816030502319336	-35.758567810058594	-398.1337890625	-0.0	-0.0	-0.0	-0.0	-0.0	-0.0	100551.234375	8702.9189453125	-15585.4228515625
0.56	-0.0	-0.0	-0.0	1.096217393875122	34.18828582763672	-369.5279235839844	-5.21018648147583	-36.22371673583984	-399.3827209472656	-0.0	-0.0	-0.0	-0.0	-0.0	-0.0	101246.78125	8855.83984375	-15629.349609375
0.5605	-0.0	-0.0	-0.0	1.057114839553833	34.35306930541992	-371.6468505859375	-5.539239883422852	-35.770286560058594	-399.7786254882813	-0.0	-0.0	-0.0	-0.0	-0.0	-0.0	101251.1328125	8795.1708984375	-15793.755859375
0.561	-0.0	-0.0	-0.0	0.8028945922851562	34.530494689941406	-373.3148193359375	-5.880452156066895	-35.378177642822266	-400.4293212890625	-0.0	-0.0	-0.0	-0.0	-0.0	-0.0	101379.8046875	8959.828125	-15777.357421875
